<?xml version="1.0" encoding="utf-8"?>
<!-- Generator: Adobe Illustrator 22.1.0, SVG Export Plug-In . SVG Version: 6.00 Build 0)  -->
<svg version="1.1" id="Layer_1" xmlns="http://www.w3.org/2000/svg" xmlns:xlink="http://www.w3.org/1999/xlink" x="0px" y="0px"
	 viewBox="0 0 1080 1080" style="enable-background:new 0 0 1080 1080;" xml:space="preserve">
<style type="text/css">
	.st0{opacity:0.1;}
	.st1{fill:#42E8E0;}
	.st2{fill:#FFA9E7;}
	.st3{fill:#E281CB;}
	.st4{fill:#FFFFFF;}
	.st5{opacity:0.4;fill:#03002D;}
	.st6{opacity:0.5;}
	.st7{opacity:0.4;fill:#FFA9E7;}
	.st8{opacity:0.2;fill:#FFA9E7;}
	.st9{fill:#5351AF;}
	.st10{fill:url(#SVGID_1_);}
	.st11{opacity:0.3;fill:#0F054C;}
	.st12{opacity:0.5;fill:url(#SVGID_2_);}
	.st13{fill:url(#SVGID_3_);}
	.st14{fill:url(#SVGID_4_);}
	.st15{opacity:0.4;fill:#FF4AEA;}
	.st16{opacity:0.5;fill:url(#SVGID_5_);}
	.st17{opacity:0.4;}
	.st18{opacity:0.4;fill:#FDB6FF;}
	.st19{opacity:0.8;fill:#FDB6FF;}
	.st20{fill:url(#SVGID_6_);}
	.st21{opacity:0.5;fill:url(#SVGID_7_);}
	.st22{fill:url(#SVGID_8_);}
	.st23{fill:url(#SVGID_9_);}
	.st24{opacity:0.5;fill:url(#SVGID_10_);}
	.st25{fill:url(#SVGID_11_);}
	.st26{opacity:0.5;fill:url(#SVGID_12_);}
	.st27{fill:url(#SVGID_13_);}
	.st28{fill:url(#SVGID_14_);}
	.st29{opacity:0.5;fill:url(#SVGID_15_);}
	.st30{fill:url(#SVGID_16_);}
	.st31{opacity:0.5;fill:url(#SVGID_17_);}
	.st32{fill:url(#SVGID_18_);}
	.st33{opacity:0.4;fill:url(#SVGID_19_);}
	.st34{fill:url(#SVGID_20_);}
	.st35{opacity:0.5;fill:url(#SVGID_21_);}
	.st36{fill:url(#SVGID_22_);}
	.st37{opacity:0.4;fill:url(#SVGID_23_);}
	.st38{fill:url(#SVGID_24_);}
	.st39{opacity:0.5;fill:url(#SVGID_25_);}
	.st40{fill:url(#SVGID_26_);}
	.st41{opacity:0.4;fill:url(#SVGID_27_);}
	.st42{fill:url(#SVGID_28_);}
	.st43{fill:url(#SVGID_29_);}
	.st44{opacity:0.5;fill:url(#SVGID_30_);}
	.st45{fill:url(#SVGID_31_);}
	.st46{fill:url(#SVGID_32_);}
	.st47{fill:url(#SVGID_33_);}
	.st48{fill:url(#SVGID_34_);}
	.st49{opacity:0.5;fill:url(#SVGID_35_);}
	.st50{fill:url(#SVGID_36_);}
	.st51{fill:url(#SVGID_37_);}
	.st52{opacity:0.5;fill:url(#SVGID_38_);}
</style>
<g>
	<g>
		<g>
			<g class="st0">
				<polygon class="st1" points="209.6,476.8 151.1,443.1 151.1,510.6 209.6,544.4 268.1,510.6 268.1,443.1 				"/>
				<polygon class="st2" points="209.6,544.4 151.1,510.6 151.1,443.1 209.6,476.8 				"/>
				<polygon class="st3" points="268.1,510.6 209.6,544.4 209.6,476.8 268.1,443.1 				"/>
				<polygon class="st2" points="209.6,476.8 151.1,443.1 209.6,409.3 268.1,443.1 				"/>
				<polygon class="st4" points="209.6,476.8 151.1,443.1 151.1,446 209.6,479.8 268.1,446 268.1,443.1 				"/>
			</g>
			<polygon class="st5" points="209.6,435.9 151.1,402.1 209.6,368.4 268.1,402.1 			"/>
			<polygon class="st1" points="209.6,317.2 151.1,283.4 151.1,351 209.6,384.7 268.1,351 268.1,283.4 			"/>
			<polygon class="st2" points="209.6,384.7 151.1,351 151.1,283.4 209.6,317.2 			"/>
			<polygon class="st3" points="268.1,351 209.6,384.7 209.6,317.2 268.1,283.4 			"/>
			<polygon class="st2" points="209.6,317.2 151.1,283.4 209.6,249.7 268.1,283.4 			"/>
			<polygon class="st4" points="209.6,317.2 151.1,283.4 151.1,286.4 209.6,320.1 268.1,286.4 268.1,283.4 			"/>
		</g>
		<g>
			<g class="st0">
				<polygon class="st1" points="809.6,482.7 751.1,448.9 751.1,516.4 809.6,550.2 868.1,516.4 868.1,448.9 				"/>
				<polygon class="st2" points="809.6,550.2 751.1,516.4 751.1,448.9 809.6,482.7 				"/>
				<polygon class="st3" points="868.1,516.4 809.6,550.2 809.6,482.7 868.1,448.9 				"/>
				<polygon class="st2" points="809.6,482.7 751.1,448.9 809.6,415.1 868.1,448.9 				"/>
				<polygon class="st4" points="809.6,482.7 751.1,448.9 751.1,451.8 809.6,485.6 868.1,451.8 868.1,448.9 				"/>
			</g>
			<polygon class="st5" points="809.6,441.7 751.1,408 809.6,374.2 868.1,408 			"/>
			<polygon class="st1" points="809.6,323 751.1,289.3 751.1,356.8 809.6,390.6 868.1,356.8 868.1,289.3 			"/>
			<polygon class="st2" points="809.6,390.6 751.1,356.8 751.1,289.3 809.6,323 			"/>
			<polygon class="st3" points="868.1,356.8 809.6,390.6 809.6,323 868.1,289.3 			"/>
			<polygon class="st2" points="809.6,323 751.1,289.3 809.6,255.5 868.1,289.3 			"/>
			<polygon class="st4" points="809.6,323 751.1,289.3 751.1,292.2 809.6,326 868.1,292.2 868.1,289.3 			"/>
		</g>
		<g>
			<g class="st0">
				<polygon class="st1" points="872.7,873.5 922.5,917.6 935.8,852.4 885.9,808.3 822.8,829.5 809.6,894.6 				"/>
				<polygon class="st2" points="885.9,808.3 935.8,852.4 922.5,917.6 872.7,873.5 				"/>
				<polygon class="st2" points="822.8,829.4 885.9,808.3 872.7,873.5 809.6,894.6 				"/>
				<polygon class="st3" points="872.7,873.5 922.5,917.6 859.5,938.7 809.6,894.6 				"/>
				<polygon class="st4" points="872.7,873.5 922.5,917.6 923.1,914.7 873.3,870.7 810.2,891.8 809.6,894.6 				"/>
			</g>
			<g class="st6">
				<polygon class="st5" points="882.9,848.2 825.3,814.9 882.9,781.6 940.5,814.9 				"/>
			</g>
			<g>
				<path class="st7" d="M882.9,905.9c-38,0-75.9-8.3-104.8-25c-28.1-16.2-43.6-37.9-43.6-60.9c0-23,15.5-44.6,43.6-60.9
					c57.8-33.4,151.9-33.4,209.7,0c28.1,16.2,43.6,37.9,43.6,60.9c0,23-15.5,44.6-43.6,60.9C958.8,897.6,920.9,905.9,882.9,905.9z
					 M882.9,735.3c-37.8,0-75.5,8.3-104.2,24.9c-27.7,16-43,37.3-43,59.8c0,22.6,15.3,43.8,43,59.8c57.5,33.2,151,33.2,208.5,0
					l0.3,0.5l-0.3-0.5c27.7-16,43-37.3,43-59.8c0-22.6-15.3-43.8-43-59.8C958.4,743.6,920.6,735.3,882.9,735.3z"/>
				<path class="st8" d="M882.9,928.9c-48.2,0-96.4-10.6-133-31.8c-35.6-20.6-55.3-48-55.3-77.2s19.6-56.6,55.3-77.2
					c73.4-42.4,192.7-42.4,266.1,0c35.6,20.6,55.3,48,55.3,77.2c0,29.2-19.6,56.6-55.3,77.2l-0.3-0.5l0.3,0.5
					C979.3,918.3,931.1,928.9,882.9,928.9z M882.9,712.3c-48,0-95.9,10.5-132.4,31.6c-35.3,20.4-54.7,47.4-54.7,76.1
					s19.4,55.8,54.7,76.1c73,42.2,191.8,42.2,264.9,0l0,0c35.3-20.4,54.7-47.4,54.7-76.1s-19.4-55.8-54.7-76.1
					C978.8,722.8,930.8,712.3,882.9,712.3z"/>
				<path class="st2" d="M882.9,887.8c-29.9,0-59.8-6.6-82.6-19.7c-22.2-12.8-34.4-29.9-34.4-48.1c0-18.2,12.2-35.2,34.4-48.1
					c45.6-26.3,119.7-26.3,165.3,0c22.2,12.8,34.4,29.9,34.4,48.1c0,18.2-12.2,35.2-34.4,48.1l-0.3-0.5l0.3,0.5
					C942.7,881.2,912.8,887.8,882.9,887.8z M882.9,753.4c-29.7,0-59.4,6.5-82,19.6c-21.8,12.6-33.8,29.3-33.8,47
					c0,17.7,12,34.4,33.8,47c45.2,26.1,118.8,26.1,164,0c21.8-12.6,33.8-29.3,33.8-47c0-17.7-12-34.4-33.8-47
					C942.3,759.9,912.6,753.4,882.9,753.4z"/>
			</g>
			<g>
				<polygon class="st1" points="876.3,756.4 869.7,690.2 815.6,729 822.2,795.2 882.8,822.6 936.9,783.8 				"/>
				<polygon class="st2" points="822.2,795.2 815.6,729 869.7,690.2 876.3,756.4 				"/>
				<polygon class="st3" points="882.8,822.6 822.2,795.2 876.3,756.4 936.9,783.8 				"/>
				<polygon class="st2" points="876.3,756.4 869.7,690.2 930.3,717.6 936.9,783.8 				"/>
				<polygon class="st4" points="876.3,756.4 869.7,690.2 867.3,691.9 873.9,758.1 934.5,785.5 936.9,783.8 				"/>
			</g>
			<polygon class="st5" points="848.9,807.2 904.2,807.2 882.8,822.6 			"/>
		</g>
		<g>
			<g>
				<path class="st2" d="M522.1,438.2c-29.3,0-58.7-6.4-81-19.3c-21.8-12.6-33.7-29.3-33.7-47.1c0-17.8,12-34.6,33.7-47.1
					c44.7-25.8,117.4-25.8,162,0l0,0c21.8,12.6,33.7,29.3,33.7,47.1c0,17.8-12,34.6-33.7,47.1C580.8,431.8,551.5,438.2,522.1,438.2z
					 M522.1,306.5c-29.1,0-58.2,6.4-80.4,19.2c-21.4,12.3-33.1,28.7-33.1,46.1c0,17.4,11.8,33.7,33.1,46.1
					c44.3,25.6,116.5,25.6,160.8,0c21.4-12.3,33.1-28.7,33.1-46.1c0-17.4-11.8-33.7-33.1-46.1l0,0
					C580.4,312.9,551.3,306.5,522.1,306.5z M522.1,411.7c-17.6,0-35.1-3.9-48.5-11.6c-13.1-7.5-20.3-17.6-20.3-28.4
					c0-10.7,7.2-20.8,20.3-28.4c26.7-15.4,70.3-15.4,97,0c13.1,7.5,20.3,17.6,20.3,28.4c0,10.7-7.2,20.8-20.3,28.4
					C557.3,407.8,539.7,411.7,522.1,411.7z M522.1,333c-17.4,0-34.7,3.8-47.9,11.4c-12.7,7.3-19.7,17-19.7,27.3
					c0,10.3,7,20,19.7,27.3c26.4,15.3,69.4,15.3,95.8,0c12.7-7.3,19.7-17,19.7-27.3c0-10.3-7-20-19.7-27.3
					C556.8,336.8,539.5,333,522.1,333z"/>
				<g>
					<g>
						<g>
							<g>
								<path class="st9" d="M476.2,308.6c24.9-14.4,65.2-14.4,90.1,0c4,2.3,7.4,4.9,10.1,7.6c14.1-14.1,10.7-32.4-10.1-44.4
									c-24.9-14.4-65.2-14.4-90.1,0c-20.9,12-24.2,30.3-10.1,44.4C468.8,313.5,472.2,310.9,476.2,308.6z"/>
								<linearGradient id="SVGID_1_" gradientUnits="userSpaceOnUse" x1="408.4799" y1="334.977" x2="634.0956" y2="334.977">
									<stop  offset="0" style="stop-color:#BCBEFF"/>
									<stop  offset="0.11" style="stop-color:#BEADF8"/>
									<stop  offset="0.3569" style="stop-color:#C38CE9"/>
									<stop  offset="0.5936" style="stop-color:#C674DF"/>
									<stop  offset="0.8135" style="stop-color:#C866D9"/>
									<stop  offset="1" style="stop-color:#C961D7"/>
								</linearGradient>
								<path class="st10" d="M617.4,298c-4.5-4.2-10-8.2-16.3-11.9c-9.9-5.7-21.2-10.2-33.3-13.3c23.2,14.7,22.5,37.5-2.1,51.7
									c-25.4,14.6-66.5,14.6-91.8,0c-23.8-13.7-25.3-35.5-4.4-50.2c-10,3-19.4,6.9-27.8,11.8c-6.4,3.7-11.8,7.7-16.3,11.9h-16.7
									v34.1l0,0c0,16.7,11,33.3,33,46.1c44.1,25.4,115.5,25.4,159.5,0c22-12.7,33-29.4,33-46.1V298H617.4z"/>
								<path class="st11" d="M601.1,286c-9.9-5.7-21.2-10.2-33.3-13.3c23.2,14.7,22.5,37.5-2.1,51.7c-12.3,7.1-28.2,10.7-44.3,11
									v61.8c28.9,0,57.7-6.4,79.8-19.1c22-12.7,33-29.4,33-46.1V298h-16.7C612.9,293.7,607.4,289.7,601.1,286z"/>
								<radialGradient id="SVGID_2_" cx="628.4001" cy="369.4257" r="131.112" gradientUnits="userSpaceOnUse">
									<stop  offset="0" style="stop-color:#A400AA"/>
									<stop  offset="9.582147e-02" style="stop-color:#A107AC"/>
									<stop  offset="0.2305" style="stop-color:#9A19B0"/>
									<stop  offset="0.3882" style="stop-color:#8D37B7"/>
									<stop  offset="0.5634" style="stop-color:#7B61C1"/>
									<stop  offset="0.7529" style="stop-color:#6497CD"/>
									<stop  offset="0.9516" style="stop-color:#49D7DC"/>
									<stop  offset="1" style="stop-color:#42E8E0"/>
								</radialGradient>
								<path class="st12" d="M601.1,286c-9.9-5.7-21.2-10.2-33.3-13.3c23.2,14.7,22.5,37.5-2.1,51.7c-12.3,7.1-28.2,10.7-44.3,11
									v61.8c28.9,0,57.7-6.4,79.8-19.1c22-12.7,33-29.4,33-46.1V298h-16.7C612.9,293.7,607.4,289.7,601.1,286z"/>
								<linearGradient id="SVGID_3_" gradientUnits="userSpaceOnUse" x1="408.4799" y1="300.7637" x2="634.0956" y2="300.7637">
									<stop  offset="0" style="stop-color:#CF46F6"/>
									<stop  offset="0.162" style="stop-color:#D04BF6"/>
									<stop  offset="0.353" style="stop-color:#D359F7"/>
									<stop  offset="0.5587" style="stop-color:#D871F9"/>
									<stop  offset="0.7746" style="stop-color:#E092FA"/>
									<stop  offset="0.9967" style="stop-color:#E9BCFD"/>
									<stop  offset="1" style="stop-color:#E9BDFD"/>
								</linearGradient>
								<path class="st13" d="M601.1,254.7c-44.1-25.4-115.5-25.4-159.5,0s-44.1,66.7,0,92.1c44.1,25.4,115.5,25.4,159.5,0
									C645.1,321.4,645.1,280.1,601.1,254.7z M566.4,327.3c-25.4,14.6-66.5,14.6-91.8,0c-25.4-14.6-25.4-38.4,0-53
									c25.4-14.6,66.5-14.6,91.8,0C591.8,288.9,591.8,312.6,566.4,327.3z"/>
								<g>
									<path class="st4" d="M601.1,343.3c-44.1,25.4-115.5,25.4-159.5,0c-21.3-12.3-32.3-28.2-33-44.3
										c-0.8,17.2,10.2,34.6,33,47.8c44.1,25.4,115.5,25.4,159.5,0c22.8-13.2,33.8-30.6,33-47.8
										C633.3,315.1,622.3,331,601.1,343.3z"/>
									<path class="st4" d="M566.4,270.7c-25.4-14.6-66.5-14.6-91.8,0c-13.5,7.8-19.8,18.1-18.9,28.3c0.7-9,7-17.9,18.9-24.8
										c25.4-14.6,66.5-14.6,91.8,0c11.9,6.9,18.2,15.8,18.9,24.8C586.2,288.8,579.9,278.5,566.4,270.7z"/>
								</g>
								<linearGradient id="SVGID_4_" gradientUnits="userSpaceOnUse" x1="416.6778" y1="297.5505" x2="626.7009" y2="297.5505">
									<stop  offset="0" style="stop-color:#CF46F6"/>
									<stop  offset="0.162" style="stop-color:#D04BF6"/>
									<stop  offset="0.353" style="stop-color:#D359F7"/>
									<stop  offset="0.5587" style="stop-color:#D871F9"/>
									<stop  offset="0.7746" style="stop-color:#E092FA"/>
									<stop  offset="0.9967" style="stop-color:#E9BCFD"/>
									<stop  offset="1" style="stop-color:#E9BDFD"/>
								</linearGradient>
								<path class="st14" d="M595.9,254.7c-41-23.7-107.5-23.7-148.5,0s-41,62.1,0,85.7c41,23.7,107.5,23.7,148.5,0
									S637,278.4,595.9,254.7z M566,323.2c-24.5,14.1-64.2,14.1-88.7,0c-24.5-14.1-24.5-37.1,0-51.2c24.5-14.1,64.2-14.1,88.7,0
									C590.5,286.1,590.5,309,566,323.2z"/>
							</g>
						</g>
						<ellipse class="st15" cx="521.7" cy="297.6" rx="62.7" ry="36.2"/>
						<linearGradient id="SVGID_5_" gradientUnits="userSpaceOnUse" x1="521.6823" y1="105.3006" x2="521.6823" y2="334.4234">
							<stop  offset="0" style="stop-color:#0F054C;stop-opacity:0"/>
							<stop  offset="8.442187e-02" style="stop-color:#291060;stop-opacity:8.442187e-02"/>
							<stop  offset="0.3372" style="stop-color:#713098;stop-opacity:0.3372"/>
							<stop  offset="0.5641" style="stop-color:#AA49C4;stop-opacity:0.5641"/>
							<stop  offset="0.7571" style="stop-color:#D35BE4;stop-opacity:0.7571"/>
							<stop  offset="0.9086" style="stop-color:#ED66F8;stop-opacity:0.9086"/>
							<stop  offset="1" style="stop-color:#F66AFF"/>
						</linearGradient>
						<path class="st16" d="M584.4,297.5L584.4,297.5l0-192.2H459V298h0c-0.1,9.4,6,18.7,18.4,25.9c24.5,14.1,64.2,14.1,88.7,0
							C578.6,316.6,584.7,307,584.4,297.5z"/>
					</g>
					<g class="st17">
						<path class="st18" d="M567.9,165.8c0,2.1-1.7,3.7-3.7,3.7c-2.1,0-3.7-1.7-3.7-3.7s1.7-3.7,3.7-3.7
							C566.2,162.1,567.9,163.8,567.9,165.8z"/>
						<path class="st18" d="M509.7,122.5c0,3.1-2.5,5.5-5.5,5.5s-5.5-2.5-5.5-5.5c0-3.1,2.5-5.5,5.5-5.5S509.7,119.5,509.7,122.5z"
							/>
						<path class="st19" d="M499.7,216.9c0,2.2-1.8,3.9-3.9,3.9c-2.2,0-3.9-1.8-3.9-3.9s1.8-3.9,3.9-3.9
							C497.9,213,499.7,214.8,499.7,216.9z"/>
					</g>
				</g>
			</g>
			<g>
				<path class="st1" d="M520,438.4c-29.3,0-58.7-6.4-81-19.3c-21.8-12.6-33.7-29.3-33.7-47.1c0-17.8,12-34.6,33.7-47.1
					c44.7-25.8,117.3-25.8,162,0c21.8,12.6,33.7,29.3,33.7,47.1c0,17.8-12,34.6-33.7,47.1C578.7,431.9,549.3,438.4,520,438.4z
					 M520,306.6c-29.1,0-58.2,6.4-80.4,19.2c-21.4,12.3-33.1,28.7-33.1,46.1c0,17.4,11.8,33.7,33.1,46.1
					c44.3,25.6,116.5,25.6,160.8,0c21.4-12.3,33.1-28.7,33.1-46.1c0-17.4-11.8-33.7-33.1-46.1l0,0C578.2,313,549.1,306.6,520,306.6z
					 M520,411.8c-17.6,0-35.1-3.9-48.5-11.6c-13.1-7.5-20.3-17.6-20.3-28.4c0-10.7,7.2-20.8,20.3-28.4c26.7-15.4,70.3-15.4,97,0
					c13.1,7.5,20.3,17.6,20.3,28.4c0,10.7-7.2,20.8-20.3,28.4l-0.3-0.5l0.3,0.5C555.1,408,537.6,411.8,520,411.8z M520,333.1
					c-17.4,0-34.7,3.8-47.9,11.4c-12.7,7.3-19.7,17-19.7,27.3c0,10.3,7,20,19.7,27.3c26.4,15.3,69.4,15.3,95.8,0l0,0
					c12.7-7.3,19.7-17,19.7-27.3c0-10.3-7-20-19.7-27.3C554.7,337,537.3,333.1,520,333.1z"/>
			</g>
			<path class="st2" d="M520.6,833.2c-105.3,0-210.6-23.1-290.8-69.4c-48-27.7-83.7-62.1-103.1-99.5l1.1-0.6
				c19.3,37.1,54.8,71.4,102.7,99c160,92.4,420.4,92.4,580.4,0c48.5-28,84.3-62.8,103.5-100.5l1.1,0.5c-19.3,38-55.2,72.9-103.9,101
				C731.3,810.1,625.9,833.2,520.6,833.2z"/>
			<path class="st2" d="M915.3,530.9c-18.9-38.6-55.1-74-104.5-102.6c-49.3-28.4-110.5-49.3-177.1-60.3l0.2-1.2
				c66.7,11,128.1,31.9,177.5,60.4c49.6,28.7,85.9,64.3,105,103.1L915.3,530.9z"/>
			<path class="st2" d="M125.2,532.5l-1.1-0.5c18.8-39.4,55.4-75.6,105.8-104.7c49-28.3,110-49.1,176.1-60.2l0.2,1.2
				c-66.1,11-126.8,31.8-175.7,60C180.3,457.3,143.9,493.3,125.2,532.5z"/>
			<g>
				<g>
					<path class="st2" d="M915.3,663c-29.3,0-58.7-6.4-81-19.3c-21.8-12.6-33.7-29.3-33.7-47.1c0-17.8,12-34.6,33.7-47.1
						c44.7-25.8,117.4-25.8,162,0l0,0c21.8,12.6,33.7,29.3,33.7,47.1c0,17.8-12,34.6-33.7,47.1C973.9,656.6,944.6,663,915.3,663z
						 M915.3,531.3c-29.1,0-58.2,6.4-80.4,19.2c-21.4,12.3-33.1,28.7-33.1,46.1c0,17.4,11.8,33.7,33.1,46.1
						c44.3,25.6,116.5,25.6,160.8,0c21.4-12.3,33.1-28.7,33.1-46.1c0-17.4-11.8-33.7-33.1-46.1l0,0
						C973.5,537.7,944.4,531.3,915.3,531.3z M915.3,636.5c-17.6,0-35.1-3.9-48.5-11.6c-13.1-7.5-20.3-17.6-20.3-28.4
						s7.2-20.8,20.3-28.4c26.7-15.4,70.3-15.4,97,0c13.1,7.5,20.3,17.6,20.3,28.4s-7.2,20.8-20.3,28.4
						C950.4,632.6,932.8,636.5,915.3,636.5z M915.3,557.8c-17.4,0-34.7,3.8-47.9,11.4c-12.7,7.3-19.7,17-19.7,27.3
						c0,10.3,7,20,19.7,27.3c26.4,15.3,69.4,15.3,95.8,0c12.7-7.3,19.7-17,19.7-27.3c0-10.3-7-20-19.7-27.3
						C950,561.6,932.6,557.8,915.3,557.8z"/>
					<g>
						<g>
							<g>
								<g>
									<path class="st9" d="M869.4,533.4c24.9-14.4,65.2-14.4,90.1,0c4,2.3,7.4,4.9,10.1,7.6c14.1-14.1,10.7-32.4-10.1-44.4
										c-24.9-14.4-65.2-14.4-90.1,0c-20.9,12-24.2,30.3-10.1,44.4C861.9,538.3,865.3,535.7,869.4,533.4z"/>
									<linearGradient id="SVGID_6_" gradientUnits="userSpaceOnUse" x1="801.6102" y1="559.7767" x2="1027.226" y2="559.7767">
										<stop  offset="0" style="stop-color:#BCBEFF"/>
										<stop  offset="0.11" style="stop-color:#BEADF8"/>
										<stop  offset="0.3569" style="stop-color:#C38CE9"/>
										<stop  offset="0.5936" style="stop-color:#C674DF"/>
										<stop  offset="0.8135" style="stop-color:#C866D9"/>
										<stop  offset="1" style="stop-color:#C961D7"/>
									</linearGradient>
									<path class="st20" d="M1010.5,522.8c-4.5-4.2-10-8.2-16.3-11.9c-9.9-5.7-21.2-10.2-33.3-13.3c23.2,14.7,22.5,37.5-2.1,51.7
										c-25.4,14.6-66.5,14.6-91.8,0c-23.8-13.7-25.3-35.5-4.4-50.2c-10,3-19.4,6.9-27.8,11.8c-6.4,3.7-11.8,7.7-16.3,11.9h-16.7
										v34.1l0,0c0,16.7,11,33.3,33,46.1c44.1,25.4,115.5,25.4,159.5,0c22-12.7,33-29.4,33-46.1v-34.1H1010.5z"/>
									<path class="st11" d="M994.2,510.8c-9.9-5.7-21.2-10.2-33.3-13.3c23.2,14.7,22.5,37.5-2.1,51.7
										c-12.3,7.1-28.2,10.7-44.3,11V622c28.9,0,57.7-6.4,79.8-19.1c22-12.7,33-29.4,33-46.1v-34.1h-16.7
										C1006,518.5,1000.5,514.5,994.2,510.8z"/>
									<radialGradient id="SVGID_7_" cx="1021.5304" cy="594.2255" r="131.112" gradientUnits="userSpaceOnUse">
										<stop  offset="0" style="stop-color:#A400AA"/>
										<stop  offset="9.582147e-02" style="stop-color:#A107AC"/>
										<stop  offset="0.2305" style="stop-color:#9A19B0"/>
										<stop  offset="0.3882" style="stop-color:#8D37B7"/>
										<stop  offset="0.5634" style="stop-color:#7B61C1"/>
										<stop  offset="0.7529" style="stop-color:#6497CD"/>
										<stop  offset="0.9516" style="stop-color:#49D7DC"/>
										<stop  offset="1" style="stop-color:#42E8E0"/>
									</radialGradient>
									<path class="st21" d="M994.2,510.8c-9.9-5.7-21.2-10.2-33.3-13.3c23.2,14.7,22.5,37.5-2.1,51.7
										c-12.3,7.1-28.2,10.7-44.3,11V622c28.9,0,57.7-6.4,79.8-19.1c22-12.7,33-29.4,33-46.1v-34.1h-16.7
										C1006,518.5,1000.5,514.5,994.2,510.8z"/>
									<linearGradient id="SVGID_8_" gradientUnits="userSpaceOnUse" x1="801.6102" y1="525.5635" x2="1027.226" y2="525.5635">
										<stop  offset="0" style="stop-color:#CF46F6"/>
										<stop  offset="0.162" style="stop-color:#D04BF6"/>
										<stop  offset="0.353" style="stop-color:#D359F7"/>
										<stop  offset="0.5587" style="stop-color:#D871F9"/>
										<stop  offset="0.7746" style="stop-color:#E092FA"/>
										<stop  offset="0.9967" style="stop-color:#E9BCFD"/>
										<stop  offset="1" style="stop-color:#E9BDFD"/>
									</linearGradient>
									<path class="st22" d="M994.2,479.5c-44.1-25.4-115.5-25.4-159.5,0c-44.1,25.4-44.1,66.7,0,92.1
										c44.1,25.4,115.5,25.4,159.5,0C1038.2,546.2,1038.2,504.9,994.2,479.5z M959.5,552.1c-25.4,14.6-66.5,14.6-91.8,0
										c-25.4-14.6-25.4-38.4,0-53s66.5-14.6,91.8,0C984.9,513.7,984.9,537.4,959.5,552.1z"/>
									<g>
										<path class="st4" d="M994.2,568.1c-44.1,25.4-115.5,25.4-159.5,0c-21.3-12.3-32.3-28.2-33-44.3
											c-0.8,17.2,10.2,34.6,33,47.8c44.1,25.4,115.5,25.4,159.5,0c22.8-13.2,33.8-30.6,33-47.8
											C1026.4,539.9,1015.4,555.8,994.2,568.1z"/>
										<path class="st4" d="M959.5,495.5c-25.4-14.6-66.5-14.6-91.8,0c-13.5,7.8-19.8,18.1-18.9,28.3c0.7-9,7-17.9,18.9-24.8
											c25.4-14.6,66.5-14.6,91.8,0c11.9,6.9,18.2,15.8,18.9,24.8C979.3,513.6,973,503.3,959.5,495.5z"/>
									</g>
									<linearGradient id="SVGID_9_" gradientUnits="userSpaceOnUse" x1="809.8081" y1="522.3503" x2="1019.8312" y2="522.3503">
										<stop  offset="0" style="stop-color:#CF46F6"/>
										<stop  offset="0.162" style="stop-color:#D04BF6"/>
										<stop  offset="0.353" style="stop-color:#D359F7"/>
										<stop  offset="0.5587" style="stop-color:#D871F9"/>
										<stop  offset="0.7746" style="stop-color:#E092FA"/>
										<stop  offset="0.9967" style="stop-color:#E9BCFD"/>
										<stop  offset="1" style="stop-color:#E9BDFD"/>
									</linearGradient>
									<path class="st23" d="M989.1,479.5c-41-23.7-107.5-23.7-148.5,0s-41,62.1,0,85.7c41,23.7,107.5,23.7,148.5,0
										S1030.1,503.2,989.1,479.5z M959.2,548c-24.5,14.1-64.2,14.1-88.7,0c-24.5-14.1-24.5-37.1,0-51.2
										c24.5-14.1,64.2-14.1,88.7,0C983.7,510.9,983.7,533.8,959.2,548z"/>
								</g>
							</g>
							<ellipse class="st15" cx="914.8" cy="522.4" rx="62.7" ry="36.2"/>
							<linearGradient id="SVGID_10_" gradientUnits="userSpaceOnUse" x1="914.8126" y1="330.1004" x2="914.8126" y2="559.2231">
								<stop  offset="0" style="stop-color:#0F054C;stop-opacity:0"/>
								<stop  offset="8.442187e-02" style="stop-color:#291060;stop-opacity:8.442187e-02"/>
								<stop  offset="0.3372" style="stop-color:#713098;stop-opacity:0.3372"/>
								<stop  offset="0.5641" style="stop-color:#AA49C4;stop-opacity:0.5641"/>
								<stop  offset="0.7571" style="stop-color:#D35BE4;stop-opacity:0.7571"/>
								<stop  offset="0.9086" style="stop-color:#ED66F8;stop-opacity:0.9086"/>
								<stop  offset="1" style="stop-color:#F66AFF"/>
							</linearGradient>
							<path class="st24" d="M977.5,522.3L977.5,522.3l0-192.2H852.1v192.7h0c-0.1,9.4,6,18.7,18.4,25.9c24.5,14.1,64.2,14.1,88.7,0
								C971.7,541.4,977.8,531.8,977.5,522.3z"/>
						</g>
						<g class="st17">
							<path class="st18" d="M961.1,390.6c0,2.1-1.7,3.7-3.7,3.7s-3.7-1.7-3.7-3.7s1.7-3.7,3.7-3.7S961.1,388.6,961.1,390.6z"/>
							<path class="st18" d="M902.9,347.3c0,3.1-2.5,5.5-5.5,5.5c-3.1,0-5.5-2.5-5.5-5.5c0-3.1,2.5-5.5,5.5-5.5
								C900.4,341.8,902.9,344.3,902.9,347.3z"/>
							<path class="st19" d="M892.8,441.7c0,2.2-1.8,3.9-3.9,3.9c-2.2,0-3.9-1.8-3.9-3.9c0-2.2,1.8-3.9,3.9-3.9
								C891.1,437.8,892.8,439.6,892.8,441.7z"/>
						</g>
					</g>
				</g>
				<g>
					<path class="st2" d="M123.5,663c-29.3,0-58.7-6.4-81-19.3c-21.8-12.6-33.7-29.3-33.7-47.1c0-17.8,12-34.6,33.7-47.1
						c44.7-25.8,117.4-25.8,162,0l0,0c21.8,12.6,33.7,29.3,33.7,47.1c0,17.8-12,34.6-33.7,47.1C182.2,656.6,152.9,663,123.5,663z
						 M123.5,531.3c-29.1,0-58.2,6.4-80.4,19.2C21.8,562.8,10,579.2,10,596.6c0,17.4,11.8,33.7,33.1,46.1
						c44.3,25.6,116.5,25.6,160.8,0c21.4-12.3,33.1-28.7,33.1-46.1c0-17.4-11.8-33.7-33.1-46.1l0,0
						C181.8,537.7,152.7,531.3,123.5,531.3z M123.5,636.5c-17.6,0-35.1-3.9-48.5-11.6c-13.1-7.5-20.3-17.6-20.3-28.4
						S62,575.8,75,568.2c26.7-15.4,70.3-15.4,97,0c13.1,7.5,20.3,17.6,20.3,28.4s-7.2,20.8-20.3,28.4
						C158.7,632.6,141.1,636.5,123.5,636.5z M123.5,557.8c-17.4,0-34.7,3.8-47.9,11.4c-12.7,7.3-19.7,17-19.7,27.3
						c0,10.3,7,20,19.7,27.3c26.4,15.3,69.4,15.3,95.8,0c12.7-7.3,19.7-17,19.7-27.3c0-10.3-7-20-19.7-27.3
						C158.2,561.6,140.9,557.8,123.5,557.8z"/>
					<g>
						<g>
							<g>
								<g>
									<path class="st9" d="M77.6,533.4c24.9-14.4,65.2-14.4,90.1,0c4,2.3,7.4,4.9,10.1,7.6c14.1-14.1,10.7-32.4-10.1-44.4
										c-24.9-14.4-65.2-14.4-90.1,0c-20.9,12-24.2,30.3-10.1,44.4C70.2,538.3,73.6,535.7,77.6,533.4z"/>
									<linearGradient id="SVGID_11_" gradientUnits="userSpaceOnUse" x1="9.8808" y1="559.7767" x2="235.4966" y2="559.7767">
										<stop  offset="0" style="stop-color:#BCBEFF"/>
										<stop  offset="0.11" style="stop-color:#BEADF8"/>
										<stop  offset="0.3569" style="stop-color:#C38CE9"/>
										<stop  offset="0.5936" style="stop-color:#C674DF"/>
										<stop  offset="0.8135" style="stop-color:#C866D9"/>
										<stop  offset="1" style="stop-color:#C961D7"/>
									</linearGradient>
									<path class="st25" d="M218.8,522.8c-4.5-4.2-10-8.2-16.3-11.9c-9.9-5.7-21.2-10.2-33.3-13.3c23.2,14.7,22.5,37.5-2.1,51.7
										c-25.4,14.6-66.5,14.6-91.8,0c-23.8-13.7-25.3-35.5-4.4-50.2c-10,3-19.4,6.9-27.8,11.8c-6.4,3.7-11.8,7.7-16.3,11.9H9.9
										v34.1l0,0c0,16.7,11,33.3,33,46.1c44.1,25.4,115.5,25.4,159.5,0c22-12.7,33-29.4,33-46.1v-34.1H218.8z"/>
									<path class="st11" d="M202.5,510.8c-9.9-5.7-21.2-10.2-33.3-13.3c23.2,14.7,22.5,37.5-2.1,51.7
										c-12.3,7.1-28.2,10.7-44.3,11V622c28.9,0,57.7-6.4,79.8-19.1c22-12.7,33-29.4,33-46.1v-34.1h-16.7
										C214.3,518.5,208.8,514.5,202.5,510.8z"/>
									<radialGradient id="SVGID_12_" cx="229.801" cy="594.2255" r="131.112" gradientUnits="userSpaceOnUse">
										<stop  offset="0" style="stop-color:#A400AA"/>
										<stop  offset="9.582147e-02" style="stop-color:#A107AC"/>
										<stop  offset="0.2305" style="stop-color:#9A19B0"/>
										<stop  offset="0.3882" style="stop-color:#8D37B7"/>
										<stop  offset="0.5634" style="stop-color:#7B61C1"/>
										<stop  offset="0.7529" style="stop-color:#6497CD"/>
										<stop  offset="0.9516" style="stop-color:#49D7DC"/>
										<stop  offset="1" style="stop-color:#42E8E0"/>
									</radialGradient>
									<path class="st26" d="M202.5,510.8c-9.9-5.7-21.2-10.2-33.3-13.3c23.2,14.7,22.5,37.5-2.1,51.7
										c-12.3,7.1-28.2,10.7-44.3,11V622c28.9,0,57.7-6.4,79.8-19.1c22-12.7,33-29.4,33-46.1v-34.1h-16.7
										C214.3,518.5,208.8,514.5,202.5,510.8z"/>
									<linearGradient id="SVGID_13_" gradientUnits="userSpaceOnUse" x1="9.8808" y1="525.5635" x2="235.4966" y2="525.5635">
										<stop  offset="0" style="stop-color:#CF46F6"/>
										<stop  offset="0.162" style="stop-color:#D04BF6"/>
										<stop  offset="0.353" style="stop-color:#D359F7"/>
										<stop  offset="0.5587" style="stop-color:#D871F9"/>
										<stop  offset="0.7746" style="stop-color:#E092FA"/>
										<stop  offset="0.9967" style="stop-color:#E9BCFD"/>
										<stop  offset="1" style="stop-color:#E9BDFD"/>
									</linearGradient>
									<path class="st27" d="M202.5,479.5c-44.1-25.4-115.5-25.4-159.5,0c-44.1,25.4-44.1,66.7,0,92.1
										c44.1,25.4,115.5,25.4,159.5,0C246.5,546.2,246.5,504.9,202.5,479.5z M167.8,552.1c-25.4,14.6-66.5,14.6-91.8,0
										c-25.4-14.6-25.4-38.4,0-53s66.5-14.6,91.8,0C193.2,513.7,193.2,537.4,167.8,552.1z"/>
									<g>
										<path class="st4" d="M202.5,568.1c-44.1,25.4-115.5,25.4-159.5,0c-21.3-12.3-32.3-28.2-33-44.3
											c-0.8,17.2,10.2,34.6,33,47.8c44.1,25.4,115.5,25.4,159.5,0c22.8-13.2,33.8-30.6,33-47.8
											C234.7,539.9,223.7,555.8,202.5,568.1z"/>
										<path class="st4" d="M167.8,495.5c-25.4-14.6-66.5-14.6-91.8,0c-13.5,7.8-19.8,18.1-18.9,28.3c0.7-9,7-17.9,18.9-24.8
											c25.4-14.6,66.5-14.6,91.8,0c11.9,6.9,18.2,15.8,18.9,24.8C187.6,513.6,181.3,503.3,167.8,495.5z"/>
									</g>
									<linearGradient id="SVGID_14_" gradientUnits="userSpaceOnUse" x1="18.0787" y1="522.3503" x2="228.1019" y2="522.3503">
										<stop  offset="0" style="stop-color:#CF46F6"/>
										<stop  offset="0.162" style="stop-color:#D04BF6"/>
										<stop  offset="0.353" style="stop-color:#D359F7"/>
										<stop  offset="0.5587" style="stop-color:#D871F9"/>
										<stop  offset="0.7746" style="stop-color:#E092FA"/>
										<stop  offset="0.9967" style="stop-color:#E9BCFD"/>
										<stop  offset="1" style="stop-color:#E9BDFD"/>
									</linearGradient>
									<path class="st28" d="M197.3,479.5c-41-23.7-107.5-23.7-148.5,0s-41,62.1,0,85.7c41,23.7,107.5,23.7,148.5,0
										S238.4,503.2,197.3,479.5z M167.4,548c-24.5,14.1-64.2,14.1-88.7,0c-24.5-14.1-24.5-37.1,0-51.2
										c24.5-14.1,64.2-14.1,88.7,0C191.9,510.9,191.9,533.8,167.4,548z"/>
								</g>
							</g>
							<ellipse class="st15" cx="123.1" cy="522.4" rx="62.7" ry="36.2"/>
							<linearGradient id="SVGID_15_" gradientUnits="userSpaceOnUse" x1="123.0832" y1="330.1004" x2="123.0832" y2="559.2231">
								<stop  offset="0" style="stop-color:#0F054C;stop-opacity:0"/>
								<stop  offset="8.442187e-02" style="stop-color:#291060;stop-opacity:8.442187e-02"/>
								<stop  offset="0.3372" style="stop-color:#713098;stop-opacity:0.3372"/>
								<stop  offset="0.5641" style="stop-color:#AA49C4;stop-opacity:0.5641"/>
								<stop  offset="0.7571" style="stop-color:#D35BE4;stop-opacity:0.7571"/>
								<stop  offset="0.9086" style="stop-color:#ED66F8;stop-opacity:0.9086"/>
								<stop  offset="1" style="stop-color:#F66AFF"/>
							</linearGradient>
							<path class="st29" d="M185.8,522.3L185.8,522.3l0-192.2H60.4v192.7h0c-0.1,9.4,6,18.7,18.4,25.9c24.5,14.1,64.2,14.1,88.7,0
								C180,541.4,186.1,531.8,185.8,522.3z"/>
						</g>
						<g class="st17">
							<path class="st18" d="M169.3,390.6c0,2.1-1.7,3.7-3.7,3.7c-2.1,0-3.7-1.7-3.7-3.7s1.7-3.7,3.7-3.7
								C167.6,386.9,169.3,388.6,169.3,390.6z"/>
							<path class="st18" d="M111.1,347.3c0,3.1-2.5,5.5-5.5,5.5s-5.5-2.5-5.5-5.5c0-3.1,2.5-5.5,5.5-5.5S111.1,344.3,111.1,347.3z"
								/>
							<path class="st19" d="M101.1,441.7c0,2.2-1.8,3.9-3.9,3.9c-2.2,0-3.9-1.8-3.9-3.9c0-2.2,1.8-3.9,3.9-3.9
								C99.3,437.8,101.1,439.6,101.1,441.7z"/>
						</g>
					</g>
				</g>
			</g>
			<g>
				<path class="st2" d="M520,676.2c-34.6,0-69.3-7.6-95.6-22.8c-25.7-14.8-39.8-34.6-39.8-55.7c0-21.1,14.1-40.8,39.8-55.6
					c52.7-30.4,138.5-30.4,191.2,0c25.7,14.8,39.8,34.6,39.8,55.7c0,21.1-14.1,40.8-39.8,55.7l-0.4-0.7l0.4,0.7
					C589.3,668.6,554.6,676.2,520,676.2z M520,520.8c-34.4,0-68.7,7.5-94.8,22.6c-25.2,14.5-39.1,33.8-39.1,54.3
					c0,20.5,13.9,39.8,39.1,54.3c52.3,30.2,137.4,30.2,189.7,0c25.2-14.5,39.1-33.8,39.1-54.3c0-20.5-13.9-39.8-39.1-54.3
					C588.7,528.3,554.3,520.8,520,520.8z"/>
				<g>
					<g>
						<path class="st9" d="M466.6,537.4c29.5-17,77.4-17,106.9,0c4.8,2.8,8.8,5.8,12,9c16.7-16.7,12.7-38.4-12-52.7
							c-29.5-17-77.4-17-106.9,0c-24.7,14.3-28.7,36-12,52.7C457.8,543.2,461.8,540.1,466.6,537.4z"/>
						<linearGradient id="SVGID_16_" gradientUnits="userSpaceOnUse" x1="386.24" y1="568.6909" x2="653.7476" y2="568.6909">
							<stop  offset="0" style="stop-color:#BCBEFF"/>
							<stop  offset="0.11" style="stop-color:#BEADF8"/>
							<stop  offset="0.3569" style="stop-color:#C38CE9"/>
							<stop  offset="0.5936" style="stop-color:#C674DF"/>
							<stop  offset="0.8135" style="stop-color:#C866D9"/>
							<stop  offset="1" style="stop-color:#C961D7"/>
						</linearGradient>
						<path class="st30" d="M633.9,524.8c-5.4-5-11.8-9.8-19.4-14.1c-11.8-6.8-25.2-12-39.5-15.8c27.5,17.4,26.7,44.5-2.5,61.3
							c-30.1,17.4-78.8,17.4-108.9,0c-28.2-16.3-30-42.1-5.3-59.5c-11.9,3.6-23,8.2-33,14c-7.5,4.4-14,9.1-19.4,14.1h-19.8v40.5l0,0
							c0,19.8,13.1,39.5,39.2,54.6c52.2,30.2,136.9,30.2,189.2,0c26.1-15.1,39.2-34.8,39.2-54.6v-40.5H633.9z"/>
						<path class="st11" d="M614.6,510.7c-11.8-6.8-25.2-12-39.5-15.8c27.5,17.4,26.7,44.5-2.5,61.3c-14.6,8.4-33.5,12.7-52.5,13
							v73.3c34.2,0,68.5-7.5,94.6-22.6c26.1-15.1,39.2-34.8,39.2-54.6v-40.5h-19.8C628.6,519.8,622.1,515,614.6,510.7z"/>
						<radialGradient id="SVGID_17_" cx="646.9945" cy="609.5359" r="155.4567" gradientUnits="userSpaceOnUse">
							<stop  offset="0" style="stop-color:#A400AA"/>
							<stop  offset="9.582147e-02" style="stop-color:#A107AC"/>
							<stop  offset="0.2305" style="stop-color:#9A19B0"/>
							<stop  offset="0.3882" style="stop-color:#8D37B7"/>
							<stop  offset="0.5634" style="stop-color:#7B61C1"/>
							<stop  offset="0.7529" style="stop-color:#6497CD"/>
							<stop  offset="0.9516" style="stop-color:#49D7DC"/>
							<stop  offset="1" style="stop-color:#42E8E0"/>
						</radialGradient>
						<path class="st31" d="M614.6,510.7c-11.8-6.8-25.2-12-39.5-15.8c27.5,17.4,26.7,44.5-2.5,61.3c-14.6,8.4-33.5,12.7-52.5,13
							v73.3c34.2,0,68.5-7.5,94.6-22.6c26.1-15.1,39.2-34.8,39.2-54.6v-40.5h-19.8C628.6,519.8,622.1,515,614.6,510.7z"/>
						<path class="st9" d="M614.6,473.5c-52.2-30.2-136.9-30.2-189.2,0c-52.2,30.2-52.2,79.1,0,109.2c52.2,30.2,136.9,30.2,189.2,0
							C666.8,552.6,666.8,503.7,614.6,473.5z M573.5,559.6c-30.1,17.4-78.8,17.4-108.9,0c-30.1-17.4-30.1-45.5,0-62.9
							c30.1-17.4,78.8-17.4,108.9,0C603.6,514.1,603.6,542.2,573.5,559.6z"/>
						<g>
							<path class="st4" d="M614.6,578.6c-52.2,30.2-136.9,30.2-189.2,0c-25.2-14.5-38.2-33.5-39.1-52.5
								c-1,20.5,12.1,41.1,39.1,56.7c52.2,30.2,136.9,30.2,189.2,0c27-15.6,40.1-36.2,39.1-56.7C652.8,545.1,639.8,564,614.6,578.6z
								"/>
							<path class="st4" d="M573.5,492.5c-30.1-17.4-78.8-17.4-108.9,0c-16,9.2-23.4,21.5-22.5,33.5c0.9-10.7,8.3-21.2,22.5-29.4
								c30.1-17.4,78.8-17.4,108.9,0c14.1,8.2,21.6,18.7,22.5,29.4C596.9,514,589.4,501.7,573.5,492.5z"/>
						</g>
						<linearGradient id="SVGID_18_" gradientUnits="userSpaceOnUse" x1="395.96" y1="524.3152" x2="644.98" y2="524.3152">
							<stop  offset="0" style="stop-color:#C0BFF6"/>
							<stop  offset="0.2938" style="stop-color:#C5C4F7"/>
							<stop  offset="0.6399" style="stop-color:#D3D2F9"/>
							<stop  offset="1" style="stop-color:#E9E9FD"/>
						</linearGradient>
						<path class="st32" d="M608.5,473.5c-48.6-28.1-127.5-28.1-176.1,0c-48.6,28.1-48.6,73.6,0,101.7c48.6,28.1,127.5,28.1,176.1,0
							C657.1,547.1,657.1,501.6,608.5,473.5z M573.1,554.7c-29,16.8-76.1,16.8-105.2,0c-29-16.8-29-44,0-60.7
							c29-16.8,76.1-16.8,105.2,0C602.1,510.7,602.1,537.9,573.1,554.7z"/>
					</g>
					<linearGradient id="SVGID_19_" gradientUnits="userSpaceOnUse" x1="386.24" y1="531.5464" x2="653.7476" y2="531.5464">
						<stop  offset="0" style="stop-color:#CF46F6"/>
						<stop  offset="0.162" style="stop-color:#D04BF6"/>
						<stop  offset="0.353" style="stop-color:#D359F7"/>
						<stop  offset="0.5587" style="stop-color:#D871F9"/>
						<stop  offset="0.7746" style="stop-color:#E092FA"/>
						<stop  offset="0.9967" style="stop-color:#E9BCFD"/>
						<stop  offset="1" style="stop-color:#E9BDFD"/>
					</linearGradient>
					<path class="st33" d="M633.9,487.6c-5.4-5-11.8-9.8-19.4-14.1c-11.8-6.8-25.2-12-39.5-15.8c27.5,17.4,26.7,44.5-2.5,61.3
						c-30.1,17.4-78.8,17.4-108.9,0c-28.2-16.3-30-42.1-5.3-59.5c-11.9,3.6-23,8.2-33,14c-7.5,4.4-14,9.1-19.4,14.1h-19.8v40.5l0,0
						c0,19.8,13.1,39.5,39.2,54.6c52.2,30.2,136.9,30.2,189.2,0c26.1-15.1,39.2-34.8,39.2-54.6v-40.5H633.9z"/>
					<g>
						<path class="st9" d="M466.6,476.6c29.5-17,77.4-17,106.9,0c4.8,2.8,8.8,5.8,12,9c16.7-16.7,12.7-38.4-12-52.7
							c-29.5-17-77.4-17-106.9,0c-24.7,14.3-28.7,36-12,52.7C457.8,482.4,461.8,479.4,466.6,476.6z"/>
						<linearGradient id="SVGID_20_" gradientUnits="userSpaceOnUse" x1="386.24" y1="507.9598" x2="653.7476" y2="507.9598">
							<stop  offset="0" style="stop-color:#BCBEFF"/>
							<stop  offset="0.11" style="stop-color:#BEADF8"/>
							<stop  offset="0.3569" style="stop-color:#C38CE9"/>
							<stop  offset="0.5936" style="stop-color:#C674DF"/>
							<stop  offset="0.8135" style="stop-color:#C866D9"/>
							<stop  offset="1" style="stop-color:#C961D7"/>
						</linearGradient>
						<path class="st34" d="M633.9,464.1c-5.4-5-11.8-9.8-19.4-14.1c-11.8-6.8-25.2-12-39.5-15.8c27.5,17.4,26.7,44.5-2.5,61.3
							c-30.1,17.4-78.8,17.4-108.9,0c-28.2-16.3-30-42.1-5.3-59.5c-11.9,3.6-23,8.2-33,14c-7.5,4.4-14,9.1-19.4,14.1h-19.8v40.5l0,0
							c0,19.8,13.1,39.5,39.2,54.6c52.2,30.2,136.9,30.2,189.2,0c26.1-15.1,39.2-34.8,39.2-54.6v-40.5H633.9z"/>
						<path class="st11" d="M614.6,449.9c-11.8-6.8-25.2-12-39.5-15.8c27.5,17.4,26.7,44.5-2.5,61.3c-14.6,8.4-33.5,12.7-52.5,13
							v73.3c34.2,0,68.5-7.5,94.6-22.6c26.1-15.1,39.2-34.8,39.2-54.6v-40.5h-19.8C628.6,459,622.1,454.3,614.6,449.9z"/>
						<radialGradient id="SVGID_21_" cx="646.9945" cy="548.805" r="155.457" gradientUnits="userSpaceOnUse">
							<stop  offset="0" style="stop-color:#A400AA"/>
							<stop  offset="9.582147e-02" style="stop-color:#A107AC"/>
							<stop  offset="0.2305" style="stop-color:#9A19B0"/>
							<stop  offset="0.3882" style="stop-color:#8D37B7"/>
							<stop  offset="0.5634" style="stop-color:#7B61C1"/>
							<stop  offset="0.7529" style="stop-color:#6497CD"/>
							<stop  offset="0.9516" style="stop-color:#49D7DC"/>
							<stop  offset="1" style="stop-color:#42E8E0"/>
						</radialGradient>
						<path class="st35" d="M614.6,449.9c-11.8-6.8-25.2-12-39.5-15.8c27.5,17.4,26.7,44.5-2.5,61.3c-14.6,8.4-33.5,12.7-52.5,13
							v73.3c34.2,0,68.5-7.5,94.6-22.6c26.1-15.1,39.2-34.8,39.2-54.6v-40.5h-19.8C628.6,459,622.1,454.3,614.6,449.9z"/>
						<path class="st9" d="M614.6,412.8c-52.2-30.2-136.9-30.2-189.2,0c-52.2,30.2-52.2,79.1,0,109.2s136.9,30.2,189.2,0
							S666.8,442.9,614.6,412.8z M573.5,498.8c-30.1,17.4-78.8,17.4-108.9,0c-30.1-17.4-30.1-45.5,0-62.9
							c30.1-17.4,78.8-17.4,108.9,0S603.6,481.5,573.5,498.8z"/>
						<g>
							<path class="st4" d="M614.6,517.8c-52.2,30.2-136.9,30.2-189.2,0c-25.2-14.5-38.2-33.5-39.1-52.5
								c-1,20.5,12.1,41.1,39.1,56.7c52.2,30.2,136.9,30.2,189.2,0c27-15.6,40.1-36.2,39.1-56.7
								C652.8,484.4,639.8,503.3,614.6,517.8z"/>
							<path class="st4" d="M573.5,431.8c-30.1-17.4-78.8-17.4-108.9,0c-16,9.2-23.4,21.5-22.5,33.5c0.9-10.7,8.3-21.2,22.5-29.4
								c30.1-17.4,78.8-17.4,108.9,0c14.1,8.2,21.6,18.7,22.5,29.4C596.9,453.3,589.4,441,573.5,431.8z"/>
						</g>
						<linearGradient id="SVGID_22_" gradientUnits="userSpaceOnUse" x1="395.96" y1="463.5842" x2="644.98" y2="463.5842">
							<stop  offset="0" style="stop-color:#C0BFF6"/>
							<stop  offset="0.2938" style="stop-color:#C5C4F7"/>
							<stop  offset="0.6399" style="stop-color:#D3D2F9"/>
							<stop  offset="1" style="stop-color:#E9E9FD"/>
						</linearGradient>
						<path class="st36" d="M608.5,412.8c-48.6-28.1-127.5-28.1-176.1,0c-48.6,28.1-48.6,73.6,0,101.7c48.6,28.1,127.5,28.1,176.1,0
							C657.1,486.3,657.1,440.8,608.5,412.8z M573.1,493.9c-29,16.8-76.1,16.8-105.2,0c-29-16.8-29-44,0-60.7
							c29-16.8,76.1-16.8,105.2,0C602.1,450,602.1,477.2,573.1,493.9z"/>
					</g>
					<linearGradient id="SVGID_23_" gradientUnits="userSpaceOnUse" x1="386.24" y1="470.8155" x2="653.7476" y2="470.8155">
						<stop  offset="0" style="stop-color:#CF46F6"/>
						<stop  offset="0.162" style="stop-color:#D04BF6"/>
						<stop  offset="0.353" style="stop-color:#D359F7"/>
						<stop  offset="0.5587" style="stop-color:#D871F9"/>
						<stop  offset="0.7746" style="stop-color:#E092FA"/>
						<stop  offset="0.9967" style="stop-color:#E9BCFD"/>
						<stop  offset="1" style="stop-color:#E9BDFD"/>
					</linearGradient>
					<path class="st37" d="M633.9,426.9c-5.4-5-11.8-9.8-19.4-14.1c-11.8-6.8-25.2-12-39.5-15.8c27.5,17.4,26.7,44.5-2.5,61.3
						c-30.1,17.4-78.8,17.4-108.9,0c-28.2-16.3-30-42.1-5.3-59.5c-11.9,3.6-23,8.2-33,14c-7.5,4.4-14,9.1-19.4,14.1h-19.8v40.5l0,0
						c0,19.8,13.1,39.5,39.2,54.6c52.2,30.2,136.9,30.2,189.2,0c26.1-15.1,39.2-34.8,39.2-54.6v-40.5H633.9z"/>
					<g>
						<path class="st9" d="M466.6,415.9c29.5-17,77.4-17,106.9,0c4.8,2.8,8.8,5.8,12,9c16.7-16.7,12.7-38.4-12-52.7
							c-29.5-17-77.4-17-106.9,0c-24.7,14.3-28.7,36-12,52.7C457.8,421.7,461.8,418.7,466.6,415.9z"/>
						<linearGradient id="SVGID_24_" gradientUnits="userSpaceOnUse" x1="386.24" y1="447.2289" x2="653.7476" y2="447.2289">
							<stop  offset="0" style="stop-color:#BCBEFF"/>
							<stop  offset="0.11" style="stop-color:#BEADF8"/>
							<stop  offset="0.3569" style="stop-color:#C38CE9"/>
							<stop  offset="0.5936" style="stop-color:#C674DF"/>
							<stop  offset="0.8135" style="stop-color:#C866D9"/>
							<stop  offset="1" style="stop-color:#C961D7"/>
						</linearGradient>
						<path class="st38" d="M633.9,403.3c-5.4-5-11.8-9.8-19.4-14.1c-11.8-6.8-25.2-12-39.5-15.8c27.5,17.4,26.7,44.5-2.5,61.3
							c-30.1,17.4-78.8,17.4-108.9,0c-28.2-16.3-30-42.1-5.3-59.5c-11.9,3.6-23,8.2-33,14c-7.5,4.4-14,9.1-19.4,14.1h-19.8v40.5l0,0
							c0,19.8,13.1,39.5,39.2,54.6c52.2,30.2,136.9,30.2,189.2,0c26.1-15.1,39.2-34.8,39.2-54.6v-40.5H633.9z"/>
						<path class="st11" d="M614.6,389.2c-11.8-6.8-25.2-12-39.5-15.8c27.5,17.4,26.7,44.5-2.5,61.3c-14.6,8.4-33.5,12.7-52.5,13
							V521c34.2,0,68.5-7.5,94.6-22.6c26.1-15.1,39.2-34.8,39.2-54.6v-40.5h-19.8C628.6,398.3,622.1,393.6,614.6,389.2z"/>
						<radialGradient id="SVGID_25_" cx="646.9945" cy="488.0739" r="155.4567" gradientUnits="userSpaceOnUse">
							<stop  offset="0" style="stop-color:#A400AA"/>
							<stop  offset="9.582147e-02" style="stop-color:#A107AC"/>
							<stop  offset="0.2305" style="stop-color:#9A19B0"/>
							<stop  offset="0.3882" style="stop-color:#8D37B7"/>
							<stop  offset="0.5634" style="stop-color:#7B61C1"/>
							<stop  offset="0.7529" style="stop-color:#6497CD"/>
							<stop  offset="0.9516" style="stop-color:#49D7DC"/>
							<stop  offset="1" style="stop-color:#42E8E0"/>
						</radialGradient>
						<path class="st39" d="M614.6,389.2c-11.8-6.8-25.2-12-39.5-15.8c27.5,17.4,26.7,44.5-2.5,61.3c-14.6,8.4-33.5,12.7-52.5,13
							V521c34.2,0,68.5-7.5,94.6-22.6c26.1-15.1,39.2-34.8,39.2-54.6v-40.5h-19.8C628.6,398.3,622.1,393.6,614.6,389.2z"/>
						<path class="st9" d="M614.6,352.1c-52.2-30.2-136.9-30.2-189.2,0c-52.2,30.2-52.2,79.1,0,109.2s136.9,30.2,189.2,0
							C666.8,431.1,666.8,382.2,614.6,352.1z M573.5,438.1c-30.1,17.4-78.8,17.4-108.9,0c-30.1-17.4-30.1-45.5,0-62.9
							c30.1-17.4,78.8-17.4,108.9,0C603.6,392.6,603.6,420.7,573.5,438.1z"/>
						<g>
							<path class="st4" d="M614.6,457.1c-52.2,30.2-136.9,30.2-189.2,0c-25.2-14.5-38.2-33.5-39.1-52.5
								c-1,20.5,12.1,41.1,39.1,56.7c52.2,30.2,136.9,30.2,189.2,0c27-15.6,40.1-36.2,39.1-56.7
								C652.8,423.6,639.8,442.6,614.6,457.1z"/>
							<path class="st4" d="M573.5,371.1c-30.1-17.4-78.8-17.4-108.9,0c-16,9.2-23.4,21.5-22.5,33.5c0.9-10.7,8.3-21.2,22.5-29.4
								c30.1-17.4,78.8-17.4,108.9,0c14.1,8.2,21.6,18.7,22.5,29.4C596.9,392.5,589.4,380.3,573.5,371.1z"/>
						</g>
						<linearGradient id="SVGID_26_" gradientUnits="userSpaceOnUse" x1="395.96" y1="402.8533" x2="644.98" y2="402.8533">
							<stop  offset="0" style="stop-color:#C0BFF6"/>
							<stop  offset="0.2938" style="stop-color:#C5C4F7"/>
							<stop  offset="0.6399" style="stop-color:#D3D2F9"/>
							<stop  offset="1" style="stop-color:#E9E9FD"/>
						</linearGradient>
						<path class="st40" d="M608.5,352c-48.6-28.1-127.5-28.1-176.1,0c-48.6,28.1-48.6,73.6,0,101.7c48.6,28.1,127.5,28.1,176.1,0
							C657.1,425.6,657.1,380.1,608.5,352z M573.1,433.2c-29,16.8-76.1,16.8-105.2,0c-29-16.8-29-44,0-60.7
							c29-16.8,76.1-16.8,105.2,0C602.1,389.3,602.1,416.4,573.1,433.2z"/>
					</g>
					<linearGradient id="SVGID_27_" gradientUnits="userSpaceOnUse" x1="386.24" y1="410.0844" x2="653.7476" y2="410.0844">
						<stop  offset="0" style="stop-color:#CF46F6"/>
						<stop  offset="0.162" style="stop-color:#D04BF6"/>
						<stop  offset="0.353" style="stop-color:#D359F7"/>
						<stop  offset="0.5587" style="stop-color:#D871F9"/>
						<stop  offset="0.7746" style="stop-color:#E092FA"/>
						<stop  offset="0.9967" style="stop-color:#E9BCFD"/>
						<stop  offset="1" style="stop-color:#E9BDFD"/>
					</linearGradient>
					<path class="st41" d="M633.9,366.2c-5.4-5-11.8-9.8-19.4-14.1c-11.8-6.8-25.2-12-39.5-15.8c27.5,17.4,26.7,44.5-2.5,61.3
						c-30.1,17.4-78.8,17.4-108.9,0c-28.2-16.3-30-42.1-5.3-59.5c-11.9,3.6-23,8.2-33,14c-7.5,4.4-14,9.1-19.4,14.1h-19.8v40.5l0,0
						c0,19.8,13.1,39.5,39.2,54.6c52.2,30.2,136.9,30.2,189.2,0c26.1-15.1,39.2-34.8,39.2-54.6v-40.5H633.9z"/>
					<g>
						<path class="st9" d="M466.6,355.2c29.5-17,77.4-17,106.9,0c4.8,2.8,8.8,5.8,12,9c16.7-16.7,12.7-38.4-12-52.7
							c-29.5-17-77.4-17-106.9,0c-24.7,14.3-28.7,36-12,52.7C457.8,361,461.8,357.9,466.6,355.2z"/>
						<linearGradient id="SVGID_28_" gradientUnits="userSpaceOnUse" x1="386.24" y1="386.498" x2="653.7476" y2="386.498">
							<stop  offset="0" style="stop-color:#BCBEFF"/>
							<stop  offset="0.151" style="stop-color:#A3A7F5"/>
							<stop  offset="0.3866" style="stop-color:#8289E8"/>
							<stop  offset="0.6124" style="stop-color:#6A73DF"/>
							<stop  offset="0.8221" style="stop-color:#5C66D9"/>
							<stop  offset="1" style="stop-color:#5761D7"/>
						</linearGradient>
						<path class="st42" d="M633.9,342.6c-5.4-5-11.8-9.8-19.4-14.1c-11.8-6.8-25.2-12-39.5-15.8c27.5,17.4,26.7,44.5-2.5,61.3
							c-30.1,17.4-78.8,17.4-108.9,0c-28.2-16.3-30-42.1-5.3-59.5c-11.9,3.6-23,8.2-33,14c-7.5,4.4-14,9.1-19.4,14.1h-19.8v40.5l0,0
							c0,19.8,13.1,39.5,39.2,54.6c52.2,30.2,136.9,30.2,189.2,0c26.1-15.1,39.2-34.8,39.2-54.6v-40.5H633.9z"/>
						<linearGradient id="SVGID_29_" gradientUnits="userSpaceOnUse" x1="386.24" y1="386.498" x2="653.7476" y2="386.498">
							<stop  offset="0" style="stop-color:#BCBEFF"/>
							<stop  offset="0.11" style="stop-color:#BEADF8"/>
							<stop  offset="0.3569" style="stop-color:#C38CE9"/>
							<stop  offset="0.5936" style="stop-color:#C674DF"/>
							<stop  offset="0.8135" style="stop-color:#C866D9"/>
							<stop  offset="1" style="stop-color:#C961D7"/>
						</linearGradient>
						<path class="st43" d="M633.9,342.6c-5.4-5-11.8-9.8-19.4-14.1c-11.8-6.8-25.2-12-39.5-15.8c27.5,17.4,26.7,44.5-2.5,61.3
							c-30.1,17.4-78.8,17.4-108.9,0c-28.2-16.3-30-42.1-5.3-59.5c-11.9,3.6-23,8.2-33,14c-7.5,4.4-14,9.1-19.4,14.1h-19.8v40.5l0,0
							c0,19.8,13.1,39.5,39.2,54.6c52.2,30.2,136.9,30.2,189.2,0c26.1-15.1,39.2-34.8,39.2-54.6v-40.5H633.9z"/>
						<path class="st11" d="M614.6,328.5c-11.8-6.8-25.2-12-39.5-15.8c27.5,17.4,26.7,44.5-2.5,61.3c-14.6,8.4-33.5,12.7-52.5,13
							v73.3c34.2,0,68.5-7.5,94.6-22.6c26.1-15.1,39.2-34.8,39.2-54.6v-40.5h-19.8C628.6,337.6,622.1,332.8,614.6,328.5z"/>
						<radialGradient id="SVGID_30_" cx="646.9945" cy="427.3431" r="155.4567" gradientUnits="userSpaceOnUse">
							<stop  offset="0" style="stop-color:#A400AA"/>
							<stop  offset="9.582147e-02" style="stop-color:#A107AC"/>
							<stop  offset="0.2305" style="stop-color:#9A19B0"/>
							<stop  offset="0.3882" style="stop-color:#8D37B7"/>
							<stop  offset="0.5634" style="stop-color:#7B61C1"/>
							<stop  offset="0.7529" style="stop-color:#6497CD"/>
							<stop  offset="0.9516" style="stop-color:#49D7DC"/>
							<stop  offset="1" style="stop-color:#42E8E0"/>
						</radialGradient>
						<path class="st44" d="M614.6,328.5c-11.8-6.8-25.2-12-39.5-15.8c27.5,17.4,26.7,44.5-2.5,61.3c-14.6,8.4-33.5,12.7-52.5,13
							v73.3c34.2,0,68.5-7.5,94.6-22.6c26.1-15.1,39.2-34.8,39.2-54.6v-40.5h-19.8C628.6,337.6,622.1,332.8,614.6,328.5z"/>
						<linearGradient id="SVGID_31_" gradientUnits="userSpaceOnUse" x1="386.2399" y1="345.9321" x2="653.7475" y2="345.9321">
							<stop  offset="0" style="stop-color:#CF46F6"/>
							<stop  offset="0.162" style="stop-color:#D04BF6"/>
							<stop  offset="0.353" style="stop-color:#D359F7"/>
							<stop  offset="0.5587" style="stop-color:#D871F9"/>
							<stop  offset="0.7746" style="stop-color:#E092FA"/>
							<stop  offset="0.9967" style="stop-color:#E9BCFD"/>
							<stop  offset="1" style="stop-color:#E9BDFD"/>
						</linearGradient>
						<path class="st45" d="M614.6,291.3c-52.2-30.2-136.9-30.2-189.2,0c-52.2,30.2-52.2,79.1,0,109.2c52.2,30.2,136.9,30.2,189.2,0
							C666.8,370.4,666.8,321.5,614.6,291.3z M573.5,377.4c-30.1,17.4-78.8,17.4-108.9,0c-30.1-17.4-30.1-45.5,0-62.9
							c30.1-17.4,78.8-17.4,108.9,0C603.6,331.9,603.6,360,573.5,377.4z"/>
						<g class="st17">
							<linearGradient id="SVGID_32_" gradientUnits="userSpaceOnUse" x1="386.2441" y1="383.5008" x2="653.7434" y2="383.5008">
								<stop  offset="0" style="stop-color:#CF46F6"/>
								<stop  offset="0.162" style="stop-color:#D04BF6"/>
								<stop  offset="0.353" style="stop-color:#D359F7"/>
								<stop  offset="0.5587" style="stop-color:#D871F9"/>
								<stop  offset="0.7746" style="stop-color:#E092FA"/>
								<stop  offset="0.9967" style="stop-color:#E9BCFD"/>
								<stop  offset="1" style="stop-color:#E9BDFD"/>
							</linearGradient>
							<path class="st46" d="M614.6,396.4c-52.2,30.2-136.9,30.2-189.2,0c-25.2-14.5-38.2-33.5-39.1-52.5
								c-1,20.5,12.1,41.1,39.1,56.7c52.2,30.2,136.9,30.2,189.2,0c27-15.6,40.1-36.2,39.1-56.7
								C652.8,362.9,639.8,381.8,614.6,396.4z"/>
						</g>
						<linearGradient id="SVGID_33_" gradientUnits="userSpaceOnUse" x1="395.96" y1="344.9597" x2="644.98" y2="344.9597">
							<stop  offset="0" style="stop-color:#CF46F6"/>
							<stop  offset="0.162" style="stop-color:#D04BF6"/>
							<stop  offset="0.353" style="stop-color:#D359F7"/>
							<stop  offset="0.5587" style="stop-color:#D871F9"/>
							<stop  offset="0.7746" style="stop-color:#E092FA"/>
							<stop  offset="0.9967" style="stop-color:#E9BCFD"/>
							<stop  offset="1" style="stop-color:#E9BDFD"/>
						</linearGradient>
						<path class="st47" d="M608.5,294.1c-48.6-28.1-127.5-28.1-176.1,0c-48.6,28.1-48.6,73.6,0,101.7c48.6,28.1,127.5,28.1,176.1,0
							C657.1,367.7,657.1,322.2,608.5,294.1z M573.1,375.3c-29,16.8-76.1,16.8-105.2,0c-29-16.8-29-44,0-60.7
							c29-16.8,76.1-16.8,105.2,0C602.1,331.4,602.1,358.6,573.1,375.3z"/>
					</g>
				</g>
				<ellipse class="st15" cx="520.5" cy="345" rx="74.2" ry="42.9"/>
				<g>
					<circle class="st18" cx="552.2" cy="321.1" r="3"/>
					<path class="st18" d="M502.4,182.8c0,1.7-1.4,3-3,3c-1.7,0-3-1.4-3-3c0-1.7,1.4-3,3-3C501,179.7,502.4,181.1,502.4,182.8z"/>
					<path class="st18" d="M508.3,286.1c0,2.5-2,4.5-4.5,4.5s-4.5-2-4.5-4.5c0-2.5,2-4.5,4.5-4.5S508.3,283.7,508.3,286.1z"/>
					<circle class="st19" cx="497" cy="362.3" r="3.2"/>
					<circle class="st19" cx="540.2" cy="234.8" r="4.8"/>
					<path class="st19" d="M541.3,250.4c0,1.8-1.5,3.3-3.3,3.3c-1.8,0-3.3-1.5-3.3-3.3c0-1.8,1.5-3.3,3.3-3.3
						C539.8,247.2,541.3,248.6,541.3,250.4z"/>
				</g>
			</g>
		</g>
		<g>
			<g class="st0">
				<polygon class="st1" points="188,906.9 129.3,873 129.3,940.8 188,974.7 246.7,940.8 246.7,873 				"/>
				<polygon class="st2" points="188,974.7 129.3,940.8 129.3,873 188,906.9 				"/>
				<polygon class="st3" points="246.7,940.8 188,974.7 188,906.9 246.7,873 				"/>
				<polygon class="st2" points="188,906.9 129.3,873 188,839.1 246.7,873 				"/>
				<polygon class="st4" points="188,906.9 129.3,873 129.3,875.9 188,909.8 246.7,875.9 246.7,873 				"/>
			</g>
			<polygon class="st5" points="188,865.8 129.3,831.9 188,798 246.7,831.9 			"/>
			<polygon class="st1" points="188,746.7 129.3,712.7 129.3,780.5 188,814.4 246.7,780.5 246.7,712.7 			"/>
			<polygon class="st2" points="188,814.4 129.3,780.5 129.3,712.7 188,746.7 			"/>
			<polygon class="st3" points="246.7,780.5 188,814.4 188,746.7 246.7,712.7 			"/>
			<polygon class="st2" points="188,746.7 129.3,712.7 188,678.9 246.7,712.8 			"/>
			<polygon class="st4" points="188,746.7 129.3,712.7 129.3,715.7 188,749.6 246.7,715.7 246.7,712.7 			"/>
		</g>
	</g>
	<g>
		<path class="st2" d="M523.1,895.7c-29.3,0-58.7-6.4-81-19.3c-21.8-12.6-33.7-29.3-33.7-47.1c0-17.8,12-34.6,33.7-47.1
			c44.7-25.8,117.4-25.8,162,0l0,0c21.8,12.6,33.7,29.3,33.7,47.1c0,17.8-12,34.6-33.7,47.1C581.8,889.3,552.5,895.7,523.1,895.7z
			 M523.1,764c-29.1,0-58.2,6.4-80.4,19.2c-21.4,12.3-33.1,28.7-33.1,46.1c0,17.4,11.8,33.7,33.1,46.1c44.3,25.6,116.5,25.6,160.8,0
			c21.4-12.3,33.1-28.7,33.1-46.1c0-17.4-11.8-33.7-33.1-46.1l0,0C581.4,770.4,552.2,764,523.1,764z M523.1,869.2
			c-17.6,0-35.1-3.9-48.5-11.6c-13.1-7.5-20.3-17.6-20.3-28.4s7.2-20.8,20.3-28.4c26.7-15.4,70.3-15.4,97,0
			c13.1,7.5,20.3,17.6,20.3,28.4s-7.2,20.8-20.3,28.4C558.3,865.4,540.7,869.2,523.1,869.2z M523.1,790.5
			c-17.4,0-34.7,3.8-47.9,11.4c-12.7,7.3-19.7,17-19.7,27.3c0,10.3,7,20,19.7,27.3c26.4,15.3,69.4,15.3,95.8,0
			c12.7-7.3,19.7-17,19.7-27.3c0-10.3-7-20-19.7-27.3C557.8,794.3,540.5,790.5,523.1,790.5z"/>
		<g>
			<g>
				<g>
					<g>
						<path class="st9" d="M477.2,766.1c24.9-14.4,65.2-14.4,90.1,0c4,2.3,7.4,4.9,10.1,7.6c14.1-14.1,10.7-32.4-10.1-44.4
							c-24.9-14.4-65.2-14.4-90.1,0c-20.9,12-24.2,30.3-10.1,44.4C469.8,771,473.2,768.4,477.2,766.1z"/>
						<linearGradient id="SVGID_34_" gradientUnits="userSpaceOnUse" x1="409.4702" y1="792.4993" x2="635.086" y2="792.4993">
							<stop  offset="0" style="stop-color:#BCBEFF"/>
							<stop  offset="0.11" style="stop-color:#BEADF8"/>
							<stop  offset="0.3569" style="stop-color:#C38CE9"/>
							<stop  offset="0.5936" style="stop-color:#C674DF"/>
							<stop  offset="0.8135" style="stop-color:#C866D9"/>
							<stop  offset="1" style="stop-color:#C961D7"/>
						</linearGradient>
						<path class="st48" d="M618.4,755.5c-4.5-4.2-10-8.2-16.3-11.9c-9.9-5.7-21.2-10.2-33.3-13.3c23.2,14.7,22.5,37.5-2.1,51.7
							c-25.4,14.6-66.5,14.6-91.8,0c-23.8-13.7-25.3-35.5-4.4-50.2c-10,3-19.4,6.9-27.8,11.8c-6.4,3.7-11.8,7.7-16.3,11.9h-16.7
							v34.1l0,0c0,16.7,11,33.3,33,46.1c44.1,25.4,115.5,25.4,159.5,0c22-12.7,33-29.4,33-46.1v-34.1H618.4z"/>
						<path class="st11" d="M602,743.6c-9.9-5.7-21.2-10.2-33.3-13.3c23.2,14.7,22.5,37.5-2.1,51.7c-12.3,7.1-28.2,10.7-44.3,11
							v61.8c28.9,0,57.7-6.4,79.8-19.1c22-12.7,33-29.4,33-46.1v-34.1h-16.7C613.8,751.2,608.4,747.2,602,743.6z"/>
						<radialGradient id="SVGID_35_" cx="629.3904" cy="826.948" r="131.112" gradientUnits="userSpaceOnUse">
							<stop  offset="0" style="stop-color:#A400AA"/>
							<stop  offset="9.582147e-02" style="stop-color:#A107AC"/>
							<stop  offset="0.2305" style="stop-color:#9A19B0"/>
							<stop  offset="0.3882" style="stop-color:#8D37B7"/>
							<stop  offset="0.5634" style="stop-color:#7B61C1"/>
							<stop  offset="0.7529" style="stop-color:#6497CD"/>
							<stop  offset="0.9516" style="stop-color:#49D7DC"/>
							<stop  offset="1" style="stop-color:#42E8E0"/>
						</radialGradient>
						<path class="st49" d="M602,743.6c-9.9-5.7-21.2-10.2-33.3-13.3c23.2,14.7,22.5,37.5-2.1,51.7c-12.3,7.1-28.2,10.7-44.3,11
							v61.8c28.9,0,57.7-6.4,79.8-19.1c22-12.7,33-29.4,33-46.1v-34.1h-16.7C613.8,751.2,608.4,747.2,602,743.6z"/>
						<linearGradient id="SVGID_36_" gradientUnits="userSpaceOnUse" x1="409.4702" y1="758.286" x2="635.086" y2="758.286">
							<stop  offset="0" style="stop-color:#CF46F6"/>
							<stop  offset="0.162" style="stop-color:#D04BF6"/>
							<stop  offset="0.353" style="stop-color:#D359F7"/>
							<stop  offset="0.5587" style="stop-color:#D871F9"/>
							<stop  offset="0.7746" style="stop-color:#E092FA"/>
							<stop  offset="0.9967" style="stop-color:#E9BCFD"/>
							<stop  offset="1" style="stop-color:#E9BDFD"/>
						</linearGradient>
						<path class="st50" d="M602,712.2c-44.1-25.4-115.5-25.4-159.5,0c-44.1,25.4-44.1,66.7,0,92.1c44.1,25.4,115.5,25.4,159.5,0
							C646.1,778.9,646.1,737.7,602,712.2z M567.4,784.8c-25.4,14.6-66.5,14.6-91.8,0c-25.4-14.6-25.4-38.4,0-53
							c25.4-14.6,66.5-14.6,91.8,0C592.8,746.4,592.8,770.2,567.4,784.8z"/>
						<g>
							<path class="st4" d="M602,800.8c-44.1,25.4-115.5,25.4-159.5,0c-21.3-12.3-32.3-28.2-33-44.3c-0.8,17.2,10.2,34.6,33,47.8
								c44.1,25.4,115.5,25.4,159.5,0c22.8-13.2,33.8-30.6,33-47.8C634.3,772.6,623.3,788.6,602,800.8z"/>
							<path class="st4" d="M567.4,728.3c-25.4-14.6-66.5-14.6-91.8,0c-13.5,7.8-19.8,18.1-18.9,28.3c0.7-9,7-17.9,18.9-24.8
								c25.4-14.6,66.5-14.6,91.8,0c11.9,6.9,18.2,15.8,18.9,24.8C587.2,746.4,580.9,736,567.4,728.3z"/>
						</g>
						<linearGradient id="SVGID_37_" gradientUnits="userSpaceOnUse" x1="417.6681" y1="755.0728" x2="627.6912" y2="755.0728">
							<stop  offset="0" style="stop-color:#CF46F6"/>
							<stop  offset="0.162" style="stop-color:#D04BF6"/>
							<stop  offset="0.353" style="stop-color:#D359F7"/>
							<stop  offset="0.5587" style="stop-color:#D871F9"/>
							<stop  offset="0.7746" style="stop-color:#E092FA"/>
							<stop  offset="0.9967" style="stop-color:#E9BCFD"/>
							<stop  offset="1" style="stop-color:#E9BDFD"/>
						</linearGradient>
						<path class="st51" d="M596.9,712.2c-41-23.7-107.5-23.7-148.5,0c-41,23.7-41,62.1,0,85.7c41,23.7,107.5,23.7,148.5,0
							C637.9,774.3,637.9,735.9,596.9,712.2z M567,780.7c-24.5,14.1-64.2,14.1-88.7,0c-24.5-14.1-24.5-37.1,0-51.2
							c24.5-14.1,64.2-14.1,88.7,0C591.5,743.6,591.5,766.5,567,780.7z"/>
					</g>
				</g>
				<ellipse class="st15" cx="522.7" cy="755.1" rx="62.7" ry="36.2"/>
				<linearGradient id="SVGID_38_" gradientUnits="userSpaceOnUse" x1="522.6727" y1="562.8229" x2="522.6727" y2="791.9457">
					<stop  offset="0" style="stop-color:#0F054C;stop-opacity:0"/>
					<stop  offset="8.442187e-02" style="stop-color:#291060;stop-opacity:8.442187e-02"/>
					<stop  offset="0.3372" style="stop-color:#713098;stop-opacity:0.3372"/>
					<stop  offset="0.5641" style="stop-color:#AA49C4;stop-opacity:0.5641"/>
					<stop  offset="0.7571" style="stop-color:#D35BE4;stop-opacity:0.7571"/>
					<stop  offset="0.9086" style="stop-color:#ED66F8;stop-opacity:0.9086"/>
					<stop  offset="1" style="stop-color:#F66AFF"/>
				</linearGradient>
				<path class="st52" d="M585.3,755L585.3,755l0-192.2H460v192.7h0c-0.1,9.4,6,18.7,18.4,25.9c24.5,14.1,64.2,14.1,88.7,0
					C579.6,774.1,585.7,764.5,585.3,755z"/>
			</g>
			<g class="st17">
				<path class="st18" d="M568.9,623.4c0,2.1-1.7,3.7-3.7,3.7c-2.1,0-3.7-1.7-3.7-3.7c0-2.1,1.7-3.7,3.7-3.7
					C567.2,619.6,568.9,621.3,568.9,623.4z"/>
				<path class="st18" d="M510.7,580c0,3.1-2.5,5.5-5.5,5.5s-5.5-2.5-5.5-5.5c0-3.1,2.5-5.5,5.5-5.5S510.7,577,510.7,580z"/>
				<path class="st19" d="M500.7,674.4c0,2.2-1.8,3.9-3.9,3.9c-2.2,0-3.9-1.8-3.9-3.9c0-2.2,1.8-3.9,3.9-3.9
					C498.9,670.5,500.7,672.3,500.7,674.4z"/>
			</g>
		</g>
	</g>
</g>
</svg>
